<svg width="310" height="69" viewBox="0 0 310 69" fill="none" xmlns="http://www.w3.org/2000/svg">
<path d="M15.7926 54.6712C12.7931 54.6712 10.1084 53.9006 7.73864 52.3594C5.36884 50.8182 3.49621 48.581 2.12074 45.6477C0.745265 42.7145 0.0575286 39.1515 0.0575286 34.9588C0.0575286 30.7164 0.753551 27.1368 2.1456 24.2202C3.55421 21.2869 5.4517 19.0746 7.83807 17.5831C10.2244 16.075 12.8842 15.321 15.8175 15.321C18.0547 15.321 19.8942 15.7022 21.3359 16.4645C22.7777 17.2102 23.9212 18.1134 24.7663 19.174C25.6115 20.218 26.2661 21.2041 26.7301 22.1321H27.103V3.09091H36.1264V54H27.277V47.9844H26.7301C26.2661 48.9124 25.5949 49.8984 24.7166 50.9425C23.8383 51.9699 22.6783 52.8482 21.2365 53.5774C19.7947 54.3066 17.9801 54.6712 15.7926 54.6712ZM18.3033 47.2884C20.209 47.2884 21.8331 46.7746 23.1754 45.7472C24.5178 44.7031 25.5369 43.2531 26.233 41.397C26.929 39.541 27.277 37.3783 27.277 34.9091C27.277 32.4399 26.929 30.2938 26.233 28.4709C25.5535 26.648 24.5426 25.2311 23.2003 24.2202C21.8745 23.2093 20.2422 22.7038 18.3033 22.7038C16.2981 22.7038 14.6243 23.2259 13.282 24.2699C11.9396 25.3139 10.9287 26.7557 10.2493 28.5952C9.56984 30.4347 9.23011 32.5393 9.23011 34.9091C9.23011 37.2955 9.56984 39.425 10.2493 41.2976C10.9453 43.1536 11.9645 44.6203 13.3068 45.6974C14.6657 46.758 16.3312 47.2884 18.3033 47.2884ZM56.7026 54.7706C54.2831 54.7706 52.1039 54.3397 50.165 53.478C48.2426 52.5997 46.718 51.3071 45.5911 49.6001C44.4808 47.8932 43.9256 45.7886 43.9256 43.2862C43.9256 41.1319 44.3233 39.3504 45.1188 37.9418C45.9142 36.5331 46.9997 35.4062 48.3752 34.5611C49.7507 33.7159 51.3001 33.0779 53.0236 32.647C54.7637 32.1996 56.5617 31.8764 58.4178 31.6776C60.655 31.4455 62.4696 31.2384 63.8617 31.0561C65.2537 30.8572 66.2646 30.5589 66.8944 30.1612C67.5407 29.7469 67.8638 29.1089 67.8638 28.2472V28.098C67.8638 26.2254 67.3087 24.7753 66.1983 23.7479C65.088 22.7204 63.4888 22.2067 61.4007 22.2067C59.1967 22.2067 57.4483 22.6873 56.1557 23.6484C54.8797 24.6096 54.0179 25.7448 53.5705 27.054L45.1685 25.8608C45.8314 23.5407 46.9251 21.6018 48.4498 20.044C49.9744 18.4697 51.8387 17.2931 54.0428 16.5142C56.2469 15.7188 58.6829 15.321 61.351 15.321C63.1905 15.321 65.0217 15.5365 66.8446 15.9673C68.6676 16.3982 70.333 17.1108 71.8411 18.1051C73.3491 19.0829 74.5589 20.4169 75.4703 22.1072C76.3984 23.7976 76.8624 25.9105 76.8624 28.446V54H68.2118V48.755H67.9135C67.3667 49.8156 66.5961 50.8099 65.6017 51.7379C64.624 52.6494 63.3894 53.3868 61.8979 53.9503C60.423 54.4972 58.6912 54.7706 56.7026 54.7706ZM59.0392 48.1584C60.8456 48.1584 62.4116 47.8021 63.7374 47.0895C65.0632 46.3603 66.0823 45.3991 66.7949 44.206C67.5241 43.0128 67.8887 41.7119 67.8887 40.3033V35.804C67.6069 36.036 67.1264 36.2514 66.4469 36.4503C65.784 36.6491 65.0383 36.8232 64.2097 36.9723C63.3811 37.1214 62.5608 37.254 61.7488 37.37C60.9367 37.486 60.2324 37.5855 59.6358 37.6683C58.2935 37.8506 57.092 38.1489 56.0314 38.5632C54.9708 38.9775 54.1339 39.5575 53.5208 40.3033C52.9076 41.0324 52.601 41.977 52.601 43.1371C52.601 44.7943 53.2059 46.0455 54.4157 46.8906C55.6254 47.7358 57.1666 48.1584 59.0392 48.1584ZM104.977 15.8182V22.7784H83.0272V15.8182H104.977ZM88.4462 6.67045H97.4448V42.5156C97.4448 43.7254 97.6271 44.6534 97.9917 45.2997C98.3728 45.9295 98.87 46.3603 99.4831 46.5923C100.096 46.8243 100.776 46.9403 101.521 46.9403C102.085 46.9403 102.599 46.8989 103.063 46.8161C103.543 46.7332 103.908 46.6586 104.156 46.5923L105.673 53.6271C105.192 53.7929 104.504 53.9751 103.61 54.174C102.731 54.3729 101.654 54.4889 100.378 54.522C98.1242 54.5883 96.0942 54.2486 94.2878 53.5028C92.4815 52.7405 91.048 51.5639 89.9874 49.973C88.9434 48.3821 88.4296 46.3935 88.4462 44.0071V6.67045ZM142.133 25.9105L133.93 26.8054C133.698 25.9768 133.292 25.1979 132.712 24.4688C132.149 23.7396 131.386 23.1513 130.425 22.7038C129.464 22.2564 128.287 22.0327 126.895 22.0327C125.023 22.0327 123.448 22.4387 122.172 23.2507C120.913 24.0627 120.291 25.1151 120.308 26.4077C120.291 27.518 120.697 28.4212 121.526 29.1172C122.371 29.8132 123.763 30.3849 125.702 30.8324L132.215 32.2244C135.828 33.0033 138.512 34.2379 140.269 35.9283C142.042 37.6186 142.937 39.831 142.953 42.5653C142.937 44.9683 142.233 47.0895 140.841 48.929C139.465 50.7519 137.551 52.1771 135.098 53.2045C132.646 54.232 129.828 54.7457 126.647 54.7457C121.973 54.7457 118.212 53.768 115.361 51.8125C112.511 49.8404 110.812 47.0978 110.265 43.5845L119.04 42.7393C119.438 44.4628 120.283 45.7637 121.576 46.642C122.868 47.5204 124.55 47.9595 126.622 47.9595C128.76 47.9595 130.475 47.5204 131.767 46.642C133.077 45.7637 133.731 44.6783 133.731 43.3857C133.731 42.2919 133.309 41.3887 132.463 40.6761C131.635 39.9635 130.342 39.4167 128.586 39.0355L122.073 37.6683C118.41 36.906 115.701 35.6217 113.944 33.8153C112.188 31.9924 111.318 29.6889 111.334 26.9048C111.318 24.5516 111.956 22.5133 113.248 20.7898C114.557 19.0497 116.372 17.7074 118.692 16.7628C121.029 15.8016 123.722 15.321 126.771 15.321C131.245 15.321 134.767 16.2739 137.336 18.1797C139.921 20.0855 141.52 22.6624 142.133 25.9105ZM169.713 15.8182V22.7784H147.142V15.8182H169.713ZM152.785 54V12.2138C152.785 9.64512 153.315 7.50734 154.376 5.80042C155.453 4.09351 156.895 2.81747 158.701 1.9723C160.507 1.12713 162.513 0.704542 164.717 0.704542C166.274 0.704542 167.658 0.828833 168.868 1.07741C170.078 1.32599 170.973 1.54971 171.553 1.74858L169.763 8.70881C169.382 8.5928 168.901 8.4768 168.321 8.36079C167.741 8.22822 167.095 8.16193 166.382 8.16193C164.708 8.16193 163.523 8.56794 162.827 9.37997C162.148 10.1754 161.808 11.3189 161.808 12.8104V54H152.785ZM176.76 54V15.8182H185.759V54H176.76ZM181.284 10.3991C179.859 10.3991 178.633 9.92685 177.605 8.98224C176.578 8.02107 176.064 6.86932 176.064 5.52699C176.064 4.16809 176.578 3.01633 177.605 2.07173C178.633 1.11056 179.859 0.62997 181.284 0.62997C182.726 0.62997 183.953 1.11056 184.963 2.07173C185.991 3.01633 186.505 4.16809 186.505 5.52699C186.505 6.86932 185.991 8.02107 184.963 8.98224C183.953 9.92685 182.726 10.3991 181.284 10.3991ZM204.011 3.09091V54H195.012V3.09091H204.011ZM213.264 54V15.8182H222.263V54H213.264ZM217.788 10.3991C216.363 10.3991 215.137 9.92685 214.109 8.98224C213.082 8.02107 212.568 6.86932 212.568 5.52699C212.568 4.16809 213.082 3.01633 214.109 2.07173C215.137 1.11056 216.363 0.62997 217.788 0.62997C219.23 0.62997 220.456 1.11056 221.467 2.07173C222.495 3.01633 223.009 4.16809 223.009 5.52699C223.009 6.86932 222.495 8.02107 221.467 8.98224C220.456 9.92685 219.23 10.3991 217.788 10.3991ZM231.516 68.3182V15.8182H240.366V22.1321H240.888C241.352 21.2041 242.006 20.218 242.851 19.174C243.697 18.1134 244.84 17.2102 246.282 16.4645C247.724 15.7022 249.563 15.321 251.8 15.321C254.75 15.321 257.41 16.075 259.78 17.5831C262.166 19.0746 264.055 21.2869 265.447 24.2202C266.856 27.1368 267.56 30.7164 267.56 34.9588C267.56 39.1515 266.872 42.7145 265.497 45.6477C264.122 48.581 262.249 50.8182 259.879 52.3594C257.509 53.9006 254.825 54.6712 251.825 54.6712C249.638 54.6712 247.823 54.3066 246.381 53.5774C244.939 52.8482 243.779 51.9699 242.901 50.9425C242.039 49.8984 241.368 48.9124 240.888 47.9844H240.515V68.3182H231.516ZM240.341 34.9091C240.341 37.3783 240.689 39.541 241.385 41.397C242.097 43.2531 243.117 44.7031 244.442 45.7472C245.785 46.7746 247.409 47.2884 249.314 47.2884C251.303 47.2884 252.969 46.758 254.311 45.6974C255.653 44.6203 256.664 43.1536 257.344 41.2976C258.04 39.425 258.388 37.2955 258.388 34.9091C258.388 32.5393 258.048 30.4347 257.368 28.5952C256.689 26.7557 255.678 25.3139 254.336 24.2699C252.993 23.2259 251.32 22.7038 249.314 22.7038C247.392 22.7038 245.76 23.2093 244.417 24.2202C243.075 25.2311 242.056 26.648 241.36 28.4709C240.68 30.2938 240.341 32.4399 240.341 34.9091ZM292.17 54.7457C288.341 54.7457 285.035 53.9503 282.251 52.3594C279.484 50.7519 277.354 48.4815 275.863 45.5483C274.371 42.5985 273.626 39.1267 273.626 35.1328C273.626 31.2053 274.371 27.7583 275.863 24.7919C277.371 21.8089 279.475 19.4889 282.177 17.8317C284.878 16.1579 288.051 15.321 291.697 15.321C294.05 15.321 296.271 15.7022 298.359 16.4645C300.464 17.2102 302.32 18.3703 303.927 19.9446C305.551 21.5189 306.827 23.5241 307.756 25.9602C308.684 28.3797 309.148 31.2633 309.148 34.6108V37.37H277.851V31.3047H300.522C300.505 29.5812 300.132 28.0483 299.403 26.706C298.674 25.3471 297.655 24.2782 296.346 23.4993C295.053 22.7204 293.545 22.331 291.822 22.331C289.982 22.331 288.366 22.7784 286.974 23.6733C285.582 24.5516 284.497 25.7116 283.718 27.1534C282.956 28.5786 282.566 30.1446 282.55 31.8516V37.1463C282.55 39.367 282.956 41.2727 283.768 42.8636C284.58 44.438 285.715 45.6477 287.173 46.4929C288.631 47.3215 290.338 47.7358 292.294 47.7358C293.603 47.7358 294.788 47.5535 295.849 47.1889C296.909 46.8078 297.829 46.2526 298.608 45.5234C299.387 44.7943 299.975 43.8911 300.373 42.8139L308.775 43.7585C308.244 45.9792 307.233 47.9181 305.742 49.5753C304.267 51.2159 302.378 52.492 300.074 53.4034C297.771 54.2983 295.136 54.7457 292.17 54.7457Z" fill="#161616" fill-opacity="0.15"/>
</svg>
